<mxfile host="app.diagrams.net" agent="Mozilla/5.0 (Macintosh; Intel Mac OS X 10_15_7) AppleWebKit/537.36 (KHTML, like Gecko) Chrome/139.0.0.0 Safari/537.36" version="28.1.0">
  <diagram name="Page-1" id="Zba78u782KhtPTYuHItk">
    <mxGraphModel dx="1185" dy="677" grid="1" gridSize="10" guides="1" tooltips="1" connect="1" arrows="1" fold="1" page="1" pageScale="1" pageWidth="850" pageHeight="1100" math="0" shadow="0">
      <root>
        <mxCell id="0" />
        <mxCell id="1" parent="0" />
        <mxCell id="lQBhpv4PCOjRKE0KDKkK-3" value="" style="edgeStyle=orthogonalEdgeStyle;rounded=0;orthogonalLoop=1;jettySize=auto;html=1;" parent="1" source="lQBhpv4PCOjRKE0KDKkK-1" target="lQBhpv4PCOjRKE0KDKkK-2" edge="1">
          <mxGeometry relative="1" as="geometry" />
        </mxCell>
        <mxCell id="lQBhpv4PCOjRKE0KDKkK-1" value="Start" style="ellipse;whiteSpace=wrap;html=1;" parent="1" vertex="1">
          <mxGeometry x="365" y="20" width="120" height="80" as="geometry" />
        </mxCell>
        <mxCell id="lQBhpv4PCOjRKE0KDKkK-7" value="" style="edgeStyle=orthogonalEdgeStyle;rounded=0;orthogonalLoop=1;jettySize=auto;html=1;" parent="1" source="lQBhpv4PCOjRKE0KDKkK-2" target="lQBhpv4PCOjRKE0KDKkK-6" edge="1">
          <mxGeometry relative="1" as="geometry" />
        </mxCell>
        <mxCell id="lQBhpv4PCOjRKE0KDKkK-2" value="Initializing the system and loading the scheduled time" style="rounded=0;whiteSpace=wrap;html=1;" parent="1" vertex="1">
          <mxGeometry x="365" y="140" width="120" height="60" as="geometry" />
        </mxCell>
        <mxCell id="lQBhpv4PCOjRKE0KDKkK-8" style="edgeStyle=orthogonalEdgeStyle;rounded=0;orthogonalLoop=1;jettySize=auto;html=1;" parent="1" edge="1">
          <mxGeometry relative="1" as="geometry">
            <mxPoint x="484" y="170" as="targetPoint" />
            <mxPoint x="459" y="279.9999999999999" as="sourcePoint" />
            <Array as="points">
              <mxPoint x="544" y="280" />
              <mxPoint x="544" y="170" />
            </Array>
          </mxGeometry>
        </mxCell>
        <mxCell id="lQBhpv4PCOjRKE0KDKkK-10" value="" style="edgeStyle=orthogonalEdgeStyle;rounded=0;orthogonalLoop=1;jettySize=auto;html=1;" parent="1" source="lQBhpv4PCOjRKE0KDKkK-6" target="lQBhpv4PCOjRKE0KDKkK-9" edge="1">
          <mxGeometry relative="1" as="geometry" />
        </mxCell>
        <mxCell id="lQBhpv4PCOjRKE0KDKkK-6" value="Compare the time with scheduled time" style="rhombus;whiteSpace=wrap;html=1;rounded=0;fillColor=#ffe6cc;strokeColor=#d79b00;" parent="1" vertex="1">
          <mxGeometry x="385" y="240" width="80" height="80" as="geometry" />
        </mxCell>
        <mxCell id="lQBhpv4PCOjRKE0KDKkK-12" value="" style="edgeStyle=orthogonalEdgeStyle;rounded=0;orthogonalLoop=1;jettySize=auto;html=1;" parent="1" source="lQBhpv4PCOjRKE0KDKkK-9" target="lQBhpv4PCOjRKE0KDKkK-11" edge="1">
          <mxGeometry relative="1" as="geometry" />
        </mxCell>
        <mxCell id="lQBhpv4PCOjRKE0KDKkK-9" value="Measure the weight of the bowl before dispense" style="rounded=0;whiteSpace=wrap;html=1;" parent="1" vertex="1">
          <mxGeometry x="365" y="345" width="120" height="60" as="geometry" />
        </mxCell>
        <mxCell id="lQBhpv4PCOjRKE0KDKkK-14" value="" style="edgeStyle=orthogonalEdgeStyle;rounded=0;orthogonalLoop=1;jettySize=auto;html=1;" parent="1" source="lQBhpv4PCOjRKE0KDKkK-11" target="lQBhpv4PCOjRKE0KDKkK-13" edge="1">
          <mxGeometry relative="1" as="geometry" />
        </mxCell>
        <mxCell id="lQBhpv4PCOjRKE0KDKkK-11" value="Dispense the food" style="whiteSpace=wrap;html=1;rounded=0;" parent="1" vertex="1">
          <mxGeometry x="365" y="439" width="120" height="60" as="geometry" />
        </mxCell>
        <mxCell id="lQBhpv4PCOjRKE0KDKkK-18" value="" style="edgeStyle=orthogonalEdgeStyle;rounded=0;orthogonalLoop=1;jettySize=auto;html=1;" parent="1" source="lQBhpv4PCOjRKE0KDKkK-13" target="lQBhpv4PCOjRKE0KDKkK-17" edge="1">
          <mxGeometry relative="1" as="geometry" />
        </mxCell>
        <mxCell id="lQBhpv4PCOjRKE0KDKkK-13" value="Measure the weight of the bowl before dispense" style="whiteSpace=wrap;html=1;rounded=0;" parent="1" vertex="1">
          <mxGeometry x="365" y="525" width="120" height="60" as="geometry" />
        </mxCell>
        <mxCell id="lQBhpv4PCOjRKE0KDKkK-15" value="NO" style="text;html=1;align=center;verticalAlign=middle;resizable=0;points=[];autosize=1;strokeColor=none;fillColor=none;" parent="1" vertex="1">
          <mxGeometry x="480" y="258" width="40" height="30" as="geometry" />
        </mxCell>
        <mxCell id="lQBhpv4PCOjRKE0KDKkK-16" value="YES" style="text;html=1;align=center;verticalAlign=middle;resizable=0;points=[];autosize=1;strokeColor=none;fillColor=none;" parent="1" vertex="1">
          <mxGeometry x="415" y="313" width="50" height="30" as="geometry" />
        </mxCell>
        <mxCell id="lQBhpv4PCOjRKE0KDKkK-20" value="" style="edgeStyle=orthogonalEdgeStyle;rounded=0;orthogonalLoop=1;jettySize=auto;html=1;" parent="1" source="lQBhpv4PCOjRKE0KDKkK-17" target="lQBhpv4PCOjRKE0KDKkK-19" edge="1">
          <mxGeometry relative="1" as="geometry" />
        </mxCell>
        <mxCell id="T1XUk1IIrJEERw1P9ZL3-32" value="" style="edgeStyle=orthogonalEdgeStyle;rounded=0;orthogonalLoop=1;jettySize=auto;html=1;" parent="1" source="lQBhpv4PCOjRKE0KDKkK-17" target="T1XUk1IIrJEERw1P9ZL3-31" edge="1">
          <mxGeometry relative="1" as="geometry" />
        </mxCell>
        <mxCell id="lQBhpv4PCOjRKE0KDKkK-17" value="Measure the weight of the bowl " style="rhombus;whiteSpace=wrap;html=1;rounded=0;fillColor=#ffe6cc;strokeColor=#d79b00;" parent="1" vertex="1">
          <mxGeometry x="385" y="614" width="80" height="80" as="geometry" />
        </mxCell>
        <mxCell id="lQBhpv4PCOjRKE0KDKkK-22" value="" style="edgeStyle=orthogonalEdgeStyle;rounded=0;orthogonalLoop=1;jettySize=auto;html=1;" parent="1" source="lQBhpv4PCOjRKE0KDKkK-19" target="lQBhpv4PCOjRKE0KDKkK-21" edge="1">
          <mxGeometry relative="1" as="geometry" />
        </mxCell>
        <mxCell id="lQBhpv4PCOjRKE0KDKkK-19" value="Wait for 10 minutes" style="whiteSpace=wrap;html=1;rounded=0;" parent="1" vertex="1">
          <mxGeometry x="365" y="720" width="120" height="60" as="geometry" />
        </mxCell>
        <mxCell id="T1XUk1IIrJEERw1P9ZL3-2" value="" style="edgeStyle=orthogonalEdgeStyle;rounded=0;orthogonalLoop=1;jettySize=auto;html=1;" parent="1" source="lQBhpv4PCOjRKE0KDKkK-21" target="T1XUk1IIrJEERw1P9ZL3-1" edge="1">
          <mxGeometry relative="1" as="geometry" />
        </mxCell>
        <mxCell id="lQBhpv4PCOjRKE0KDKkK-21" value="Measure the weight of the bowl again" style="whiteSpace=wrap;html=1;rounded=0;" parent="1" vertex="1">
          <mxGeometry x="365" y="818" width="120" height="60" as="geometry" />
        </mxCell>
        <mxCell id="T1XUk1IIrJEERw1P9ZL3-4" value="" style="edgeStyle=orthogonalEdgeStyle;rounded=0;orthogonalLoop=1;jettySize=auto;html=1;" parent="1" source="T1XUk1IIrJEERw1P9ZL3-1" target="T1XUk1IIrJEERw1P9ZL3-3" edge="1">
          <mxGeometry relative="1" as="geometry" />
        </mxCell>
        <mxCell id="T1XUk1IIrJEERw1P9ZL3-7" value="" style="edgeStyle=orthogonalEdgeStyle;rounded=0;orthogonalLoop=1;jettySize=auto;html=1;" parent="1" source="T1XUk1IIrJEERw1P9ZL3-1" target="T1XUk1IIrJEERw1P9ZL3-6" edge="1">
          <mxGeometry relative="1" as="geometry" />
        </mxCell>
        <mxCell id="T1XUk1IIrJEERw1P9ZL3-1" value="weight of the bowl is = &amp;gt;75%" style="rhombus;whiteSpace=wrap;html=1;rounded=0;fillColor=#ffe6cc;strokeColor=#d79b00;" parent="1" vertex="1">
          <mxGeometry x="385" y="906" width="80" height="80" as="geometry" />
        </mxCell>
        <mxCell id="T1XUk1IIrJEERw1P9ZL3-3" value="Send alert as food not eaten" style="whiteSpace=wrap;html=1;rounded=0;fillColor=#f8cecc;strokeColor=#b85450;" parent="1" vertex="1">
          <mxGeometry x="525" y="916" width="120" height="60" as="geometry" />
        </mxCell>
        <mxCell id="T1XUk1IIrJEERw1P9ZL3-5" value="YES" style="text;html=1;align=center;verticalAlign=middle;resizable=0;points=[];autosize=1;strokeColor=none;fillColor=none;" parent="1" vertex="1">
          <mxGeometry x="465" y="916" width="50" height="30" as="geometry" />
        </mxCell>
        <mxCell id="T1XUk1IIrJEERw1P9ZL3-10" value="" style="edgeStyle=orthogonalEdgeStyle;rounded=0;orthogonalLoop=1;jettySize=auto;html=1;" parent="1" source="T1XUk1IIrJEERw1P9ZL3-6" target="T1XUk1IIrJEERw1P9ZL3-9" edge="1">
          <mxGeometry relative="1" as="geometry" />
        </mxCell>
        <mxCell id="T1XUk1IIrJEERw1P9ZL3-6" value="Record the feeding in the log" style="whiteSpace=wrap;html=1;rounded=0;" parent="1" vertex="1">
          <mxGeometry x="365" y="1005" width="120" height="60" as="geometry" />
        </mxCell>
        <mxCell id="T1XUk1IIrJEERw1P9ZL3-8" value="NO" style="text;html=1;align=center;verticalAlign=middle;resizable=0;points=[];autosize=1;strokeColor=none;fillColor=none;" parent="1" vertex="1">
          <mxGeometry x="420" y="978" width="40" height="30" as="geometry" />
        </mxCell>
        <mxCell id="T1XUk1IIrJEERw1P9ZL3-12" value="" style="edgeStyle=orthogonalEdgeStyle;rounded=0;orthogonalLoop=1;jettySize=auto;html=1;" parent="1" source="T1XUk1IIrJEERw1P9ZL3-9" target="T1XUk1IIrJEERw1P9ZL3-11" edge="1">
          <mxGeometry relative="1" as="geometry" />
        </mxCell>
        <mxCell id="T1XUk1IIrJEERw1P9ZL3-9" value="check if there is any problem in system&amp;nbsp;" style="whiteSpace=wrap;html=1;rounded=0;" parent="1" vertex="1">
          <mxGeometry x="365" y="1100" width="120" height="60" as="geometry" />
        </mxCell>
        <mxCell id="T1XUk1IIrJEERw1P9ZL3-14" value="" style="edgeStyle=orthogonalEdgeStyle;rounded=0;orthogonalLoop=1;jettySize=auto;html=1;" parent="1" source="T1XUk1IIrJEERw1P9ZL3-11" target="T1XUk1IIrJEERw1P9ZL3-13" edge="1">
          <mxGeometry relative="1" as="geometry" />
        </mxCell>
        <mxCell id="T1XUk1IIrJEERw1P9ZL3-16" value="" style="edgeStyle=orthogonalEdgeStyle;rounded=0;orthogonalLoop=1;jettySize=auto;html=1;" parent="1" source="T1XUk1IIrJEERw1P9ZL3-11" target="T1XUk1IIrJEERw1P9ZL3-15" edge="1">
          <mxGeometry relative="1" as="geometry" />
        </mxCell>
        <mxCell id="T1XUk1IIrJEERw1P9ZL3-11" value="any errors" style="rhombus;whiteSpace=wrap;html=1;rounded=0;fillColor=#ffe6cc;strokeColor=#d79b00;" parent="1" vertex="1">
          <mxGeometry x="385" y="1230" width="80" height="80" as="geometry" />
        </mxCell>
        <mxCell id="T1XUk1IIrJEERw1P9ZL3-13" value="send alerts" style="whiteSpace=wrap;html=1;rounded=0;fillColor=#f8cecc;strokeColor=#b85450;" parent="1" vertex="1">
          <mxGeometry x="525" y="1240" width="120" height="60" as="geometry" />
        </mxCell>
        <mxCell id="T1XUk1IIrJEERw1P9ZL3-20" value="" style="edgeStyle=orthogonalEdgeStyle;rounded=0;orthogonalLoop=1;jettySize=auto;html=1;" parent="1" source="T1XUk1IIrJEERw1P9ZL3-15" target="T1XUk1IIrJEERw1P9ZL3-19" edge="1">
          <mxGeometry relative="1" as="geometry" />
        </mxCell>
        <mxCell id="T1XUk1IIrJEERw1P9ZL3-15" value="Wait for the next scheduled time" style="whiteSpace=wrap;html=1;rounded=0;" parent="1" vertex="1">
          <mxGeometry x="365" y="1350" width="120" height="60" as="geometry" />
        </mxCell>
        <mxCell id="T1XUk1IIrJEERw1P9ZL3-17" value="NO" style="text;html=1;align=center;verticalAlign=middle;resizable=0;points=[];autosize=1;strokeColor=none;fillColor=none;" parent="1" vertex="1">
          <mxGeometry x="430" y="1308" width="40" height="30" as="geometry" />
        </mxCell>
        <mxCell id="T1XUk1IIrJEERw1P9ZL3-18" value="YES" style="text;html=1;align=center;verticalAlign=middle;resizable=0;points=[];autosize=1;strokeColor=none;fillColor=none;" parent="1" vertex="1">
          <mxGeometry x="460" y="1240" width="50" height="30" as="geometry" />
        </mxCell>
        <mxCell id="T1XUk1IIrJEERw1P9ZL3-25" value="" style="edgeStyle=orthogonalEdgeStyle;rounded=0;orthogonalLoop=1;jettySize=auto;html=1;entryX=0;entryY=0.5;entryDx=0;entryDy=0;exitX=0.005;exitY=0.176;exitDx=0;exitDy=0;exitPerimeter=0;" parent="1" source="T1XUk1IIrJEERw1P9ZL3-19" edge="1">
          <mxGeometry relative="1" as="geometry">
            <mxPoint x="490" y="1500" as="sourcePoint" />
            <mxPoint x="385" y="280" as="targetPoint" />
            <Array as="points">
              <mxPoint x="170" y="1501" />
              <mxPoint x="170" y="280" />
            </Array>
          </mxGeometry>
        </mxCell>
        <mxCell id="T1XUk1IIrJEERw1P9ZL3-29" value="" style="edgeStyle=orthogonalEdgeStyle;rounded=0;orthogonalLoop=1;jettySize=auto;html=1;" parent="1" source="T1XUk1IIrJEERw1P9ZL3-19" target="T1XUk1IIrJEERw1P9ZL3-28" edge="1">
          <mxGeometry relative="1" as="geometry" />
        </mxCell>
        <mxCell id="T1XUk1IIrJEERw1P9ZL3-19" value="Repeat process" style="whiteSpace=wrap;html=1;rounded=0;" parent="1" vertex="1">
          <mxGeometry x="365" y="1490" width="120" height="60" as="geometry" />
        </mxCell>
        <mxCell id="T1XUk1IIrJEERw1P9ZL3-28" value="END" style="ellipse;whiteSpace=wrap;html=1;" parent="1" vertex="1">
          <mxGeometry x="365" y="1580" width="120" height="80" as="geometry" />
        </mxCell>
        <mxCell id="T1XUk1IIrJEERw1P9ZL3-30" value="YES" style="text;html=1;align=center;verticalAlign=middle;resizable=0;points=[];autosize=1;strokeColor=none;fillColor=none;" parent="1" vertex="1">
          <mxGeometry x="415" y="688" width="50" height="30" as="geometry" />
        </mxCell>
        <mxCell id="T1XUk1IIrJEERw1P9ZL3-31" value="Send alerts as food not dispense" style="whiteSpace=wrap;html=1;rounded=0;fillColor=#f8cecc;strokeColor=#b85450;" parent="1" vertex="1">
          <mxGeometry x="525" y="624" width="120" height="60" as="geometry" />
        </mxCell>
        <mxCell id="T1XUk1IIrJEERw1P9ZL3-33" value="NO" style="text;html=1;align=center;verticalAlign=middle;resizable=0;points=[];autosize=1;strokeColor=none;fillColor=none;" parent="1" vertex="1">
          <mxGeometry x="471" y="632" width="40" height="30" as="geometry" />
        </mxCell>
      </root>
    </mxGraphModel>
  </diagram>
</mxfile>
